<?xml version="1.0" encoding="UTF-8"?>
<svg width="24px" height="24px" viewBox="0 0 24 24" version="1.1" xmlns="http://www.w3.org/2000/svg" xmlns:xlink="http://www.w3.org/1999/xlink">
    <!-- Generator: Sketch 49.3 (51167) - http://www.bohemiancoding.com/sketch -->
    <title>ic_advanced</title>
    <desc>Created with Sketch.</desc>
    <defs></defs>
    <g id="ic_advanced" stroke="none" stroke-width="1" fill="none" fill-rule="evenodd">
        <path d="M11.1048882,17.4510241 L8.19615242,23.660254 L6.79896845,21.1168511 C6.61961804,20.7903656 6.2736635,20.5906286 5.90124354,20.5985494 L3,20.660254 L6.33755623,15.8758179 C6.57564719,16.0036951 6.84214179,16.0845915 7.12417445,16.1071091 L8.06979521,16.1826081 L8.66910344,16.9179504 C9.23236432,17.6090632 10.1850654,17.8438829 11.0049843,17.4936933 L11.1048882,17.4510241 Z M17.7194159,15.6763009 L21.1961524,20.660254 L18.2949089,20.5985494 C17.9224889,20.5906286 17.5765344,20.7903656 17.397184,21.1168511 L16,23.660254 L13.1709422,17.6211113 C13.8782238,17.7523082 14.6168318,17.4931817 15.0856486,16.9179504 L15.6849568,16.1826081 L16.6305776,16.1071091 C17.0391779,16.0744862 17.4151649,15.9193303 17.7194159,15.6763009 Z M11.4845981,16.2014591 L10.6122064,16.57406 C10.2022469,16.7491548 9.72589639,16.6317449 9.44426595,16.2861885 L8.84495772,15.5508462 C8.67260389,15.3393706 8.42133171,15.2074928 8.14938256,15.1857802 L7.20376179,15.1102812 C6.75939013,15.0748023 6.39216574,14.7494699 6.30338244,14.3126147 L6.11445198,13.382989 C6.06011786,13.1156398 5.89891407,12.8820958 5.6682054,12.7364892 L4.8659859,12.2301863 C4.4890022,11.9922615 4.31503067,11.5335363 4.43943368,11.1054606 L4.70416269,10.1945175 C4.78029557,9.93254124 4.74609001,9.65083315 4.6094744,9.41468924 L4.13443498,8.59357032 C3.91120167,8.2077053 3.97033777,7.72067567 4.27942788,7.39944641 L4.93717013,6.71587209 C5.12632888,6.51928435 5.22695764,6.25394811 5.21573207,5.98136461 L5.17669855,5.03353809 C5.15835569,4.58812989 5.43705205,4.1843685 5.86002043,4.04357544 L6.76009509,3.74396851 C7.01894573,3.65780516 7.23135597,3.46962611 7.34809209,3.22304862 L7.75400657,2.36565014 C7.94475628,1.96273641 8.37916694,1.73474011 8.81911663,1.80663726 L9.75532745,1.95963404 C10.0245704,2.00363408 10.3001015,1.93572176 10.5180565,1.77163822 L11.2759288,1.20108743 C11.6320727,0.932970856 12.1226794,0.932970856 12.4788232,1.20108743 L13.2366956,1.77163822 C13.4546505,1.93572176 13.7301816,2.00363408 13.9994246,1.95963404 L14.9356354,1.80663726 C15.3755851,1.73474011 15.8099958,1.96273641 16.0007455,2.36565014 L16.4066599,3.22304862 C16.5233961,3.46962611 16.7358063,3.65780516 16.9946569,3.74396851 L17.8947316,4.04357544 C18.3177,4.1843685 18.5963964,4.58812989 18.5780535,5.03353809 L18.53902,5.98136461 C18.5277944,6.25394811 18.6284232,6.51928435 18.8175819,6.71587209 L19.4753242,7.39944641 C19.7844143,7.72067567 19.8435504,8.2077053 19.6203171,8.59357032 L19.1452776,9.41468924 C19.008662,9.65083315 18.9744565,9.93254124 19.0505894,10.1945175 L19.3153184,11.1054606 C19.4397214,11.5335363 19.2657498,11.9922615 18.8887661,12.2301863 L18.0865466,12.7364892 C17.855838,12.8820958 17.6946342,13.1156398 17.6403001,13.382989 L17.4513696,14.3126147 C17.3625863,14.7494699 16.9953619,15.0748023 16.5509902,15.1102812 L15.6053695,15.1857802 C15.3334203,15.2074928 15.0821482,15.3393706 14.9097943,15.5508462 L14.3104861,16.2861885 C14.0288557,16.6317449 13.5525051,16.7491548 13.1425457,16.57406 L12.2701539,16.2014591 C12.0192646,16.0943036 11.7354874,16.0943036 11.4845981,16.2014591 Z M11.8849998,14.5699999 C15.0247385,14.5699999 17.5699997,12.0247388 17.5699997,8.88499999 C17.5699997,5.74526122 15.0247385,3.20000005 11.8849998,3.20000005 C8.74526098,3.20000005 6.19999981,5.74526122 6.19999981,8.88499999 C6.19999981,12.0247388 8.74526098,14.5699999 11.8849998,14.5699999 Z M11.9696607,10.5275729 L9.93024529,11.7390356 L10.4522008,9.4250738 L8.66981728,7.8598371 L11.0318189,7.64119276 L11.9696607,5.46236054 L12.9075024,7.64119276 L15.269504,7.8598371 L13.4871205,9.4250738 L14.009076,11.7390356 L11.9696607,10.5275729 Z" id="Combined-Shape" fill="#222221"></path>
    </g>
</svg>