<?xml version="1.0" encoding="UTF-8"?>
<svg width="32px" height="32px" viewBox="0 0 32 32" version="1.1" xmlns="http://www.w3.org/2000/svg" xmlns:xlink="http://www.w3.org/1999/xlink">
    <g id="32/navigation/map" stroke="none" stroke-width="1" fill="none" fill-rule="evenodd">
        <path d="M25.007,24.6048438 L20.979,23.0668438 L20.979,7.78784384 L25.007,9.35684384 L25.007,24.6048438 Z M18.979,22.9938438 L13.028,24.6398438 L13.028,9.32684384 L18.979,7.64684384 L18.979,22.9938438 Z M26.37,7.74184384 L20.342,5.39384384 C20.308,5.38084384 20.274,5.38584384 20.24,5.37584384 C20.183,5.36084384 20.129,5.35284384 20.07,5.34684384 C19.981,5.33884384 19.897,5.34284384 19.81,5.35884384 C19.776,5.36484384 19.741,5.35384384 19.708,5.36284384 L12.096,7.51184384 L6.392,5.08084384 C6.082,4.94784384 5.728,4.98084384 5.449,5.16584384 C5.169,5.35084384 5,5.66484384 5,6.00084384 L5,17.1038438 C5,17.6558438 5.448,18.1038438 6,18.1038438 C6.552,18.1038438 7,17.6558438 7,17.1038438 L7,7.51384384 L11.028,9.22984384 L11.028,24.4488438 L7,22.7578438 L7,21.0958438 C7,20.5438438 6.552,20.0958438 6,20.0958438 C5.448,20.0958438 5,20.5438438 5,21.0958438 L5,22.7578438 C5,23.5738438 5.488,24.3008438 6.235,24.6058438 L11.637,26.8738438 L11.64,26.8758438 L11.641,26.8758438 C11.651,26.8788438 11.661,26.8778438 11.671,26.8818438 C11.784,26.9248438 11.903,26.9538438 12.028,26.9538438 C12.116,26.9538438 12.205,26.9418438 12.295,26.9178438 L19.929,24.8068438 L25.65,26.9908438 C25.766,27.0358438 25.886,27.0568438 26.007,27.0568438 C26.207,27.0568438 26.405,26.9968438 26.574,26.8808438 C26.845,26.6938438 27.007,26.3858438 27.007,26.0568438 L27.007,8.67284384 C27.007,8.26084384 26.754,7.89084384 26.37,7.74184384 L26.37,7.74184384 Z" id="path-1" fill="#000000"></path>
    </g>
</svg>
