<?xml version="1.0" encoding="UTF-8"?>
<svg width="25px" height="25px" viewBox="0 0 25 25" version="1.1" xmlns="http://www.w3.org/2000/svg" xmlns:xlink="http://www.w3.org/1999/xlink">
    <!-- Generator: Sketch 49.3 (51167) - http://www.bohemiancoding.com/sketch -->
    <title>ic_codepen</title>
    <desc>Created with Sketch.</desc>
    <defs></defs>
    <g id="ic_codepen" stroke="none" stroke-width="1" fill="none" fill-rule="evenodd">
        <path d="M17.772945,11.3109536 L13.4880263,8.44525545 L13.4880263,3.83511152 L21.2321017,8.99751873 L17.772945,11.3109536 Z M19.5505328,12.5000387 L22.0234829,10.8460365 L22.0234829,14.1537312 L19.5505328,12.5000387 Z M13.4880263,16.554822 L17.772945,13.6891238 L21.2321017,16.0025587 L13.4880263,21.1649659 L13.4880263,16.554822 Z M7.22666779,13.6891238 L11.5115866,16.554822 L11.5115866,21.1649659 L3.76782089,16.0025587 L7.22666779,13.6891238 Z M5.44908004,12.5000387 L2.97643969,14.1537312 L2.97643969,10.8460365 L5.44908004,12.5000387 Z M11.5115866,8.44525545 L7.22666779,11.3109536 L3.76782089,8.99751873 L11.5115866,3.83511152 L11.5115866,8.44525545 Z M12.4999613,14.8379429 L9.00425553,12.5000387 L12.4999613,10.1618248 L15.995667,12.5000387 L12.4999613,14.8379429 Z M23.9831967,8.82437505 C23.9779312,8.79618887 23.9732851,8.76862217 23.9658514,8.7413652 C23.9612053,8.72494908 23.95563,8.70946217 23.9503644,8.69335578 C23.942621,8.6691962 23.9348775,8.64503661 23.9249659,8.62118677 C23.9181517,8.60508038 23.9104082,8.58897399 23.9029745,8.57317734 C23.8924434,8.55087619 23.8816026,8.52888477 23.869213,8.50751284 C23.8602306,8.49171619 23.8506287,8.47684875 23.8410268,8.46167158 C23.8277081,8.44122885 23.8140796,8.42109587 23.7992122,8.40158236 C23.7883713,8.3873344 23.7772208,8.37308644 23.7654507,8.35914822 C23.7499638,8.34056393 23.7332379,8.32290885 23.7162023,8.3055635 C23.7031933,8.29224476 23.6901843,8.27923575 23.6768656,8.26684623 C23.6589008,8.25073984 23.6400067,8.23525292 23.620803,8.22007575 C23.6059355,8.20861544 23.5913778,8.19684538 23.5758909,8.18631428 C23.5706254,8.18228769 23.5653598,8.17764161 23.5597845,8.17392475 L13.0478882,1.16609713 C12.7161586,0.94463429 12.2834543,0.94463429 11.9517246,1.16609713 L1.44013804,8.17392475 C1.43425301,8.17764161 1.4292972,8.18228769 1.42372191,8.18631428 C1.408235,8.19684538 1.3936773,8.20861544 1.37880986,8.22007575 C1.35991583,8.23525292 1.34071206,8.25073984 1.32305698,8.26684623 C1.3094285,8.27923575 1.29641949,8.29224476 1.28372023,8.3055635 C1.26637488,8.32290885 1.24995876,8.34056393 1.23416211,8.35914822 C1.22239205,8.37308644 1.21124148,8.3873344 1.20040064,8.40158236 C1.1855332,8.42109587 1.17190472,8.44122885 1.15858598,8.46167158 C1.14898409,8.47684875 1.13938221,8.49171619 1.13070954,8.50751284 C1.11801027,8.52888477 1.10716943,8.55087619 1.09694807,8.57317734 C1.08951435,8.58897399 1.08146116,8.60508038 1.07495665,8.62118677 C1.06535477,8.64503661 1.05699184,8.6691962 1.04924838,8.69335578 C1.04398283,8.70946217 1.03840754,8.72494908 1.03407121,8.7413652 C1.02694723,8.76862217 1.02168168,8.79618887 1.01672586,8.82437505 C1.01424796,8.83862301 1.01084084,8.85256123 1.00867267,8.86680919 C1.00309738,8.90955307 1,8.95260668 1,8.99597004 L1,16.0037977 C1,16.0474708 1.00309738,16.0902146 1.00867267,16.1329585 C1.01084084,16.1475162 1.01424796,16.1614544 1.01672586,16.1757024 C1.02168168,16.2032691 1.02694723,16.2311455 1.03407121,16.2584025 C1.03840754,16.2748186 1.04398283,16.2906153 1.04924838,16.3064119 C1.05699184,16.3308812 1.06535477,16.3550408 1.07495665,16.3788907 C1.08146116,16.3953068 1.08951435,16.4107937 1.09694807,16.4265904 C1.10716943,16.4488915 1.11801027,16.4708829 1.13070954,16.4925646 C1.13938221,16.5080515 1.14898409,16.5232287 1.15858598,16.5377864 C1.17190472,16.5585388 1.1855332,16.5783621 1.20040064,16.5981853 C1.21124148,16.6130528 1.22239205,16.626991 1.23416211,16.6409292 C1.24995876,16.6592038 1.26637488,16.6771686 1.28372023,16.6942042 C1.29641949,16.7072132 1.3094285,16.7205319 1.32305698,16.7326117 C1.34071206,16.7490279 1.35991583,16.7648245 1.37880986,16.7800017 C1.3936773,16.791462 1.408235,16.8029223 1.42372191,16.8137632 C1.4292972,16.8177897 1.43425301,16.8221261 1.44013804,16.8258429 L11.9517246,23.8336706 C12.1177443,23.9445569 12.3085431,24 12.4999613,24 C12.6910698,24 12.8821783,23.9445569 13.0478882,23.8336706 L23.5597845,16.8258429 C23.5653598,16.8221261 23.5706254,16.8177897 23.5758909,16.8137632 C23.5913778,16.8029223 23.6059355,16.791462 23.620803,16.7800017 C23.6400067,16.7648245 23.6589008,16.7490279 23.6768656,16.7326117 C23.6901843,16.7205319 23.7031933,16.7072132 23.7162023,16.6942042 C23.7332379,16.6771686 23.7499638,16.6592038 23.7654507,16.6409292 C23.7772208,16.626991 23.7883713,16.6130528 23.7992122,16.5981853 C23.8140796,16.5783621 23.8277081,16.5585388 23.8410268,16.5377864 C23.8506287,16.5232287 23.8602306,16.5080515 23.869213,16.4925646 C23.8816026,16.4708829 23.8924434,16.4488915 23.9029745,16.4265904 C23.9104082,16.4107937 23.9181517,16.3953068 23.9249659,16.3788907 C23.9348775,16.3550408 23.942621,16.3308812 23.9503644,16.3064119 C23.95563,16.2906153 23.9612053,16.2748186 23.9658514,16.2584025 C23.9732851,16.2311455 23.9779312,16.2032691 23.9831967,16.1757024 C23.9856746,16.1614544 23.9890817,16.1475162 23.9909402,16.1329585 C23.9965154,16.0902146 23.9999226,16.0474708 23.9999226,16.0037977 L23.9999226,8.99597004 C23.9999226,8.95260668 23.9965154,8.90955307 23.9909402,8.86680919 C23.9890817,8.85256123 23.9856746,8.83862301 23.9831967,8.82437505 Z" id="Fill-13" stroke="#444444" stroke-width="0.5" fill="#444444"></path>
    </g>
</svg>