<?xml version="1.0" encoding="UTF-8"?>
<svg width="29px" height="25px" viewBox="0 0 29 25" version="1.1" xmlns="http://www.w3.org/2000/svg" xmlns:xlink="http://www.w3.org/1999/xlink">
    <!-- Generator: Sketch 49.3 (51167) - http://www.bohemiancoding.com/sketch -->
    <title>ic_code</title>
    <desc>Created with Sketch.</desc>
    <defs></defs>
    <g id="ic_code" stroke="none" stroke-width="1" fill="none" fill-rule="evenodd">
        <g id="Group" transform="translate(2.000000, 8.000000)" fill="#444444" fill-rule="nonzero">
            <path d="M7.75979046,7.94763032 L6.90993995,9.57259355 C6.7852071,9.81108996 6.49406683,9.90805826 6.25123899,9.79198305 L0.284362732,6.9397301 C0.1106078,6.85667274 9.20797632e-16,6.68120556 5.55111512e-16,6.48861973 L0,3.51138027 C-2.35849621e-17,3.31879444 0.1106078,3.14332726 0.284362732,3.0602699 L6.25123899,0.208016951 C6.49406683,0.0919417371 6.7852071,0.188910043 6.90993995,0.427406447 L7.75979046,2.05236968 C7.88776636,2.297067 7.79314496,2.59917834 7.54844764,2.72715425 C7.54313511,2.72993268 7.53777304,2.73261534 7.53236403,2.73520093 L2.93728155,4.93171666 L2.93728155,5.06828334 L7.53236403,7.26479907 C7.78150541,7.38389225 7.88693031,7.68240533 7.76783714,7.93154671 C7.76525155,7.93695572 7.76256889,7.9423178 7.75979046,7.94763032 Z" id="Path-10"></path>
            <path d="M24.7597905,7.94763032 L23.9099399,9.57259355 C23.7852071,9.81108996 23.4940668,9.90805826 23.251239,9.79198305 L17.2843627,6.9397301 C17.1106078,6.85667274 17,6.68120556 17,6.48861973 L17,3.51138027 C17,3.31879444 17.1106078,3.14332726 17.2843627,3.0602699 L23.251239,0.208016951 C23.4940668,0.0919417371 23.7852071,0.188910043 23.9099399,0.427406447 L24.7597905,2.05236968 C24.8877664,2.297067 24.793145,2.59917834 24.5484476,2.72715425 C24.5431351,2.72993268 24.537773,2.73261534 24.532364,2.73520093 L19.9372816,4.93171666 L19.9372816,5.06828334 L24.532364,7.26479907 C24.7815054,7.38389225 24.8869303,7.68240533 24.7678371,7.93154671 C24.7652516,7.93695572 24.7625689,7.9423178 24.7597905,7.94763032 Z" id="Path-10-Copy" transform="translate(21.000000, 5.000000) scale(-1, -1) translate(-21.000000, -5.000000) "></path>
        </g>
        <path d="M16.8910586,3 L18.8149663,3 C19.0911087,3 19.3149663,3.22385763 19.3149663,3.5 C19.3149663,3.56324117 19.302969,3.62590826 19.2796105,3.68467754 L12.1253281,21.6846775 C12.049665,21.8750441 11.8655359,22 11.6606839,22 L9.7367762,22 C9.46063382,22 9.2367762,21.7761424 9.2367762,21.5 C9.2367762,21.4367588 9.24877358,21.3740917 9.27213202,21.3153225 L16.4264144,3.31532246 C16.5020775,3.12495593 16.6862066,3 16.8910586,3 Z" id="Rectangle-24" fill="#444444"></path>
    </g>
</svg>