<?xml version="1.0" encoding="UTF-8"?>
<svg width="25px" height="25px" viewBox="0 0 25 25" version="1.1" xmlns="http://www.w3.org/2000/svg" xmlns:xlink="http://www.w3.org/1999/xlink">
    <!-- Generator: Sketch 49.3 (51167) - http://www.bohemiancoding.com/sketch -->
    <title>ic_download</title>
    <desc>Created with Sketch.</desc>
    <defs></defs>
    <g id="ic_download" stroke="none" stroke-width="1" fill="none" fill-rule="evenodd">
        <path d="M14,12 L16.8633825,12 C16.9884783,12 17.1090299,12.0468926 17.2012448,12.1314229 C17.4048043,12.3180191 17.4185557,12.6343028 17.2319595,12.8378623 L12.5,18 L7.76804045,12.8378623 C7.68351012,12.7456474 7.63661752,12.6250958 7.63661752,12.5 C7.63661752,12.2238576 7.86047515,12 8.13661752,12 L11,12 L11,2.5 C11,2.22385763 11.2238576,2 11.5,2 L13.5,2 C13.7761424,2 14,2.22385763 14,2.5 L14,12 Z M5,20 L20,20 L20,15.5 C20,15.2238576 20.2238576,15 20.5,15 L22.5,15 C22.7761424,15 23,15.2238576 23,15.5 L23,22.5 C23,22.7761424 22.7761424,23 22.5,23 L2.5,23 C2.22385763,23 2,22.7761424 2,22.5 L2,15.5 C2,15.2238576 2.22385763,15 2.5,15 L4.5,15 C4.77614237,15 5,15.2238576 5,15.5 L5,20 Z" id="Combined-Shape" fill="#444444"></path>
    </g>
</svg>