<?xml version="1.0" encoding="UTF-8"?>
<svg width="32px" height="32px" viewBox="0 0 32 32" version="1.1" xmlns="http://www.w3.org/2000/svg" xmlns:xlink="http://www.w3.org/1999/xlink">
    <g id="32/Map/position_recenter" stroke="none" stroke-width="1" fill="none" fill-rule="evenodd">
        <path d="M16.9985,23.9678 C20.6125,23.5158 23.4795,20.6498 23.9335,17.0358 L22.9995,17.0358 C22.4475,17.0358 21.9995,16.5888 21.9995,16.0358 C21.9995,15.4838 22.4475,15.0358 22.9995,15.0358 L23.9335,15.0358 C23.4795,11.4248 20.6145,8.5588 17.0025,8.1058 L17.0025,9.0058 C17.0025,9.5588 16.5555,10.0058 16.0025,10.0058 C15.4505,10.0058 15.0025,9.5588 15.0025,9.0058 L15.0025,8.1058 C11.3915,8.5588 8.5255,11.4248 8.0725,15.0358 L9.0055,15.0358 C9.5585,15.0358 10.0055,15.4838 10.0055,16.0358 C10.0055,16.5888 9.5585,17.0358 9.0055,17.0358 L8.0725,17.0358 C8.5255,20.6468 11.3895,23.5108 14.9985,23.9658 L14.9985,23.0328 C14.9985,22.4808 15.4465,22.0328 15.9985,22.0328 C16.5505,22.0328 16.9985,22.4808 16.9985,23.0328 L16.9985,23.9678 Z M27.0055,15.0358 C27.5585,15.0358 28.0055,15.4838 28.0055,16.0358 C28.0055,16.5888 27.5585,17.0358 27.0055,17.0358 L25.9525,17.0358 C25.4815,21.7548 21.7175,25.5168 16.9985,25.9858 L16.9985,27.0388 C16.9985,27.5918 16.5505,28.0388 15.9985,28.0388 C15.4465,28.0388 14.9985,27.5918 14.9985,27.0388 L14.9985,25.9858 C10.2835,25.5128 6.5235,21.7518 6.0535,17.0358 L4.9995,17.0358 C4.4475,17.0358 3.9995,16.5888 3.9995,16.0358 C3.9995,15.4838 4.4475,15.0358 4.9995,15.0358 L6.0535,15.0358 C6.5245,10.3198 10.2855,6.5578 15.0025,6.0868 L15.0025,4.9998 C15.0025,4.4468 15.4505,3.9998 16.0025,3.9998 C16.5555,3.9998 17.0025,4.4468 17.0025,4.9998 L17.0025,6.0868 C21.7205,6.5578 25.4815,10.3198 25.9525,15.0358 L27.0055,15.0358 Z M18.0029,16.0362 C18.0029,17.1402 17.1069,18.0362 16.0029,18.0362 C14.8989,18.0362 14.0029,17.1402 14.0029,16.0362 C14.0029,14.9322 14.8989,14.0362 16.0029,14.0362 C17.1069,14.0362 18.0029,14.9322 18.0029,16.0362 Z" id="path-1" fill="#000000"></path>
    </g>
</svg>
