<svg xmlns="http://www.w3.org/2000/svg" xmlns:xlink="http://www.w3.org/1999/xlink" width="32" height="32" viewBox="0 0 32 32">
    <g id="32/navigation/appearance" stroke="none" stroke-width="1" fill="none" fill-rule="evenodd" transform="translate(7 3)">
        <path id="a" d="M8.508 2A6.515 6.515 0 0 0 2 8.508c0 1.68 2.226 5.867 3.629 8.112.514.89 1.893 3.247 2.329 3.838.101.135.303.219.529.219l.002.001c.229 0 .435-.086.538-.223.44-.593 1.685-2.718 2.128-3.487 1.505-2.401 3.862-6.783 3.862-8.46A6.516 6.516 0 0 0 8.508 2zm-.02 20.678l-.004-.001c-.86-.001-1.658-.386-2.133-1.031-.584-.788-2.248-3.67-2.436-3.997C3.53 17.036 0 11.307 0 8.508 0 3.817 3.817 0 8.508 0c4.691 0 8.509 3.817 8.509 8.508 0 2.799-3.724 8.814-4.149 9.491-.149.261-1.647 2.855-2.237 3.649-.48.645-1.28 1.03-2.143 1.03zM8.5 6c-1.103 0-2 .897-2 2s.897 2 2 2 2-.897 2-2-.897-2-2-2zm0 6c-2.206 0-4-1.794-4-4s1.794-4 4-4 4 1.794 4 4-1.794 4-4 4zm2.562 14H5.938C5.419 26 5 25.552 5 25s.42-1 .938-1h5.124c.519 0 .938.448.938 1s-.42 1-.938 1z" fill="#000000"/>
    </g>
</svg>
