<?xml version="1.0" encoding="UTF-8"?>
<svg width="32px" height="32px" viewBox="0 0 32 32" version="1.1" xmlns="http://www.w3.org/2000/svg" xmlns:xlink="http://www.w3.org/1999/xlink">
    <g id="32/navigation/appearance" stroke="none" stroke-width="1" fill="none" fill-rule="evenodd">
        <path d="M19.9697,17.9878 L18.0077,17.9878 C17.4547,17.9878 17.0077,18.4358 17.0077,18.9878 L16.9817,18.9878 L16.9817,25.9998 C16.9817,26.5508 16.5327,26.9998 15.9817,26.9998 C15.4297,26.9998 14.9807,26.5508 14.9807,25.9998 L14.9807,19.1818 C14.9937,19.1168 15.0197,19.0568 15.0197,18.9878 C15.0197,18.4358 14.5727,17.9878 14.0197,17.9878 L11.9907,17.9878 C10.3337,17.9878 8.9867,16.6398 8.9867,14.9828 L8.9867,13.9688 L22.9737,14.0028 L22.9737,14.9828 C22.9737,16.6398 21.6257,17.9878 19.9697,17.9878 M22.4737,3.9808 L14.0197,3.9808 C13.4707,3.9808 13.0257,4.4228 13.0197,4.9708 L12.9807,8.9898 C12.9757,9.5428 13.4187,9.9948 13.9707,9.9998 L13.9807,9.9998 C14.5287,9.9998 14.9747,9.5588 14.9807,9.0098 L15.0097,5.9808 L22.4737,5.9808 C22.7447,5.9808 22.9737,6.2098 22.9737,6.4808 L22.9737,12.0028 L8.9867,11.9688 L8.9867,6.4808 C8.9867,6.2098 9.2147,5.9808 9.4867,5.9808 L10.0407,5.9808 C10.5937,5.9808 11.0407,5.5328 11.0407,4.9808 C11.0407,4.4288 10.5937,3.9808 10.0407,3.9808 L9.4867,3.9808 C8.1077,3.9808 6.9867,5.1028 6.9867,6.4808 L6.9867,14.9828 C6.9867,17.7428 9.2317,19.9878 11.9907,19.9878 L12.9807,19.9878 L12.9807,25.9998 C12.9807,27.6548 14.3267,28.9998 15.9817,28.9998 C17.6357,28.9998 18.9817,27.6548 18.9817,25.9998 L18.9817,19.9878 L19.9697,19.9878 C22.7287,19.9878 24.9737,17.7428 24.9737,14.9828 L24.9737,6.4808 C24.9737,5.1028 23.8527,3.9808 22.4737,3.9808" id="path-2" fill="#000000"></path>
    </g>
</svg>
