<?xml version="1.0" encoding="UTF-8"?>
<svg width="24px" height="6px" viewBox="0 0 24 6" version="1.1" xmlns="http://www.w3.org/2000/svg" xmlns:xlink="http://www.w3.org/1999/xlink">
    <!-- Generator: Sketch 52.5 (67469) - http://www.bohemiancoding.com/sketch -->
    <title>Group 3@2x</title>
    <desc>Created with Sketch.</desc>
    <g id="whatcarolmakes" stroke="none" stroke-width="1" fill="none" fill-rule="evenodd">
        <g id="smallermenu_searchresults-copy-34" transform="translate(-1479.000000, -341.000000)" fill="#4A4C4C">
            <g id="Group-3" transform="translate(1479.000000, 341.000000)">
                <path d="M3.20879121,5.49450549 C1.69152541,5.49450549 0.461538462,4.26451854 0.461538462,2.74725275 C0.461538462,1.22998695 1.69152541,3.90798505e-14 3.20879121,3.90798505e-14 C4.726057,3.90798505e-14 5.95604396,1.22998695 5.95604396,2.74725275 C5.95604396,4.26451854 4.726057,5.49450549 3.20879121,5.49450549 Z M12,5.49450549 C10.4827342,5.49450549 9.25274725,4.26451854 9.25274725,2.74725275 C9.25274725,1.22998695 10.4827342,3.90798505e-14 12,3.90798505e-14 C13.5172658,3.90798505e-14 14.7472527,1.22998695 14.7472527,2.74725275 C14.7472527,4.26451854 13.5172658,5.49450549 12,5.49450549 Z M20.7912088,5.49450549 C19.273943,5.49450549 18.043956,4.26451854 18.043956,2.74725275 C18.043956,1.22998695 19.273943,3.90798505e-14 20.7912088,3.90798505e-14 C22.3084746,3.90798505e-14 23.5384615,1.22998695 23.5384615,2.74725275 C23.5384615,4.26451854 22.3084746,5.49450549 20.7912088,5.49450549 Z" id="Combined-Shape"></path>
            </g>
        </g>
    </g>
</svg>