<?xml version="1.0" encoding="UTF-8"?>
<svg width="25px" height="25px" viewBox="0 0 25 25" version="1.1" xmlns="http://www.w3.org/2000/svg" xmlns:xlink="http://www.w3.org/1999/xlink">
    <!-- Generator: Sketch 49.3 (51167) - http://www.bohemiancoding.com/sketch -->
    <title>ic_map</title>
    <desc>Created with Sketch.</desc>
    <defs></defs>
    <g id="ic_map" stroke="none" stroke-width="1" fill="none" fill-rule="evenodd">
        <path d="M4,6.78721782 L4,17.0790139 L9,19.5790139 L16.8821005,15.6379636 L21,17.3408544 L21,7.67408346 L16.9055921,5.33442179 L9,9.28721782 L4,6.78721782 Z M1.7236068,2.29491925 L9,5.93311586 L16.7606585,2.05278658 C16.9101858,1.97802294 17.0871849,1.98293579 17.2323348,2.06587861 L23.7480695,5.78915555 C23.903857,5.87817698 24,6.0438487 24,6.22327712 L24,21.0800196 C24,21.356162 23.7761424,21.5800196 23.5,21.5800196 C23.4344367,21.5800196 23.3695135,21.5671252 23.3089264,21.5420704 L17.2107235,19.0202572 C17.0768726,18.9649053 16.9255959,18.9703179 16.7960431,19.0350943 L9.2236068,22.8213125 C9.08284305,22.8916943 8.91715695,22.8916943 8.7763932,22.8213125 L1.2763932,19.0713125 C1.10700119,18.9866164 1,18.8134849 1,18.6240989 L1,2.74213285 C1,2.46599048 1.22385763,2.24213285 1.5,2.24213285 C1.57762255,2.24213285 1.65417908,2.2602054 1.7236068,2.29491925 Z" id="Path-9" fill="#444444" fill-rule="nonzero"></path>
    </g>
</svg>