<?xml version="1.0" encoding="UTF-8"?>
<svg width="32px" height="32px" viewBox="0 0 32 32" version="1.1" xmlns="http://www.w3.org/2000/svg" xmlns:xlink="http://www.w3.org/1999/xlink">
    <g id="32/Information/ETA_d" stroke="none" stroke-width="1" fill="none" fill-rule="evenodd">
        <path d="M15,12.9433049 L17.7872759,9.39223411 C18.0121231,9.10559657 18.4151901,8.95823432 18.8078956,9.01035023 L25,9.87026286 L21.9744068,14 L15,12.9433049 Z M27.5479674,7.2093067 C27.0948635,6.91791707 26.4926738,7.0517988 26.203272,7.511525 L26.0483397,7.75664668 C25.9791561,7.72809837 25.9138702,7.68970582 25.8359168,7.6769083 L19.4203556,6.63834054 C18.306597,6.4552376 17.1762733,6.9513875 16.5429023,7.89348167 L12.5302533,13.848265 C12.3178304,14.1652496 11.9387822,14.3276797 11.5646061,14.2656609 L8.46108805,13.7389939 L11.0179581,11.9158398 C11.2976158,11.7160017 11.4535225,11.3832662 11.4281877,11.0377333 L11.2157648,8.16124511 L13.7940721,8.59931398 C14.3251293,8.69184988 14.826954,8.32662842 14.9166004,7.79110153 C15.0052723,7.25459023 14.6466869,6.74761165 14.1166041,6.6570446 L10.3124803,6.01224661 C10.0172319,5.96597866 9.71613709,6.05162359 9.49494444,6.25539944 C9.27375179,6.4591753 9.15779617,6.75548705 9.17923335,7.05573649 L9.44330034,10.6282127 L5.40629089,13.5066697 C5.30007944,13.581486 5.20848425,13.6779596 5.13832623,13.7911684 C5.07011704,13.9014239 5.02431944,14.0225081 5.00385669,14.1485144 C5.00385669,14.1494989 5.00288227,14.1504833 5.00288227,14.1514677 C4.99703577,14.1829693 5.00775435,14.212502 5.00580552,14.2430192 C4.9989846,14.3394928 4.99411252,14.4359664 5.01554969,14.5314555 C5.03991011,14.6397422 5.08863096,14.7391691 5.14612156,14.831705 C5.15586573,14.8474558 5.15684015,14.8661598 5.16755873,14.8809262 C5.16853315,14.8809262 5.16853315,14.8819106 5.16950757,14.8819106 C5.25135859,15.001026 5.36439096,15.0925774 5.49106516,15.1654249 C5.53491393,15.189051 5.58071152,15.1998797 5.62650912,15.2166149 C5.68594856,15.2402411 5.73856707,15.274696 5.80287859,15.2855246 L11.2430485,16.2069459 C11.4028528,16.2345098 11.5626572,16.2473073 11.7224616,16.2473073 C12.6793391,16.2473073 13.5943166,15.7698614 14.1419389,14.9557425 L14.329027,14.6781348 L20.9599344,15.8486154 L15.8140384,24.0311512 L14.8074657,24.0311512 C14.2695875,24.0311512 13.8330487,24.4721733 13.8330487,25.0155756 C13.8330487,25.5599623 14.2695875,26 14.8074657,26 L18.7139033,26 C19.2517814,26 19.6883202,25.5599623 19.6883202,25.0155756 C19.6883202,24.4721733 19.2517814,24.0311512 18.7139033,24.0311512 L18.1234066,24.0311512 L27.8480878,8.56682797 C28.1365152,8.10907062 28.0020457,7.49971191 27.5479674,7.2093067 L27.5479674,7.2093067 Z" id="path-1" fill="#000000"></path>
    </g>
</svg>
