<?xml version="1.0" encoding="UTF-8"?>
<svg width="32px" height="32px" viewBox="0 0 32 32" version="1.1" xmlns="http://www.w3.org/2000/svg" xmlns:xlink="http://www.w3.org/1999/xlink">
    <g id="32/Map/alternativeroute" stroke="none" stroke-width="1" fill="none" fill-rule="evenodd">
        <path d="M19.94,8.05 L16.68,4.89 C16.2911565,4.50885712 15.6688435,4.50885712 15.28,4.89 L12.05,8.09 C11.8606873,8.2777666 11.7542017,8.53336246 11.7542017,8.8 C11.7542017,9.06663754 11.8606873,9.3222334 12.05,9.51 C12.2377666,9.69931265 12.4933625,9.80579832 12.76,9.80579832 C13.0266375,9.80579832 13.2822334,9.69931265 13.47,9.51 L15,8 L15,20.41 C14.1698123,19.2801195 13.1185065,18.3308823 11.91,17.62 L9.23,16.08 L11.23,15.48 C11.5988233,15.4022498 11.892594,15.1237165 11.9898597,14.7595529 C12.0871253,14.3953892 11.9713593,14.0074714 11.6904222,13.7561746 C11.4094851,13.5048777 11.0111118,13.4329005 10.66,13.57 L6.31,14.87 C5.78485506,15.0247378 5.48175955,15.5729841 5.63,16.1 L6.84,20.48 C6.96451058,20.9252375 7.37799617,21.227082 7.84,21.21 C7.92973172,21.2198276 8.02026828,21.2198276 8.11,21.21 C8.36645198,21.1378666 8.58352086,20.9663863 8.71305722,20.7335964 C8.84259358,20.5008064 8.87388841,20.2259518 8.8,19.97 L8.2,17.79 L10.93,19.38 C13.4400159,20.8573933 14.9864442,23.5474947 15,26.46 L15,26.46 L15,27.91 C15,28.4622847 15.4477153,28.91 16,28.91 C16.5522847,28.91 17,28.4622847 17,27.91 L17,8 L18.58,9.53 C18.8285739,9.81131959 19.2137669,9.92972165 19.5774391,9.83659655 C19.9411112,9.74347145 20.2219909,9.45450894 20.3047637,9.08834179 C20.3875364,8.72217463 20.2582567,8.34049485 19.97,8.1 L19.94,8.05 Z" id="path-1" fill="#000000"></path>
    </g>
</svg>
