<?xml version="1.0" encoding="UTF-8"?>
<svg width="32px" height="32px" viewBox="0 0 32 32" version="1.1" xmlns="http://www.w3.org/2000/svg" xmlns:xlink="http://www.w3.org/1999/xlink">
    <!-- Generator: Sketch 55.2 (78181) - https://sketchapp.com -->
    <title>32/Map/overview</title>
    <desc>Created with Sketch.</desc>
    <g id="32/Map/overview" stroke="none" stroke-width="1" fill="none" fill-rule="evenodd">
        <path d="M8.9854,27.0366 C8.4334,27.0366 7.9854,26.5876 7.9854,26.0366 C7.9854,25.4856 8.4334,25.0366 8.9854,25.0366 C9.5074,25.0366 9.9244,25.4436 9.9684,25.9546 C9.9654,25.9826 9.9524,26.0076 9.9524,26.0366 C9.9524,26.0656 9.9654,26.0906 9.9684,26.1186 C9.9244,26.6296 9.5074,27.0366 8.9854,27.0366 M19.0244,16.0466 C22.3154,16.0536 24.9984,18.5136 25.0054054,21.5296 C25.0074,22.9116 24.4514,24.2326 23.4364,25.2496 C22.3034,26.3856 20.6914,27.0366 19.0124,27.0366 L11.8004,27.0366 C11.3864,28.1986 10.2874,29.0366 8.9854,29.0366 C7.3314,29.0366 5.9854,27.6906 5.9854,26.0366 C5.9854,24.3826 7.3314,23.0366 8.9854,23.0366 C10.2874,23.0366 11.3864,23.8746 11.8004,25.0366 L19.0124,25.0366 C20.1644,25.0366 21.2594,24.5996 22.0204,23.8376 C22.6574,23.1996 23.0064,22.3806 23.0054,21.5346 C23.0004,19.6156 21.2144,18.0516 19.0214,18.0466 L10.9874,18.0356 C7.6854,18.0286 5.0004,15.5596 5.0004,12.5336 C5.0004,9.5026 7.6894,7.0346 10.9954,7.0326 L16.9404,7.0266 L16.9414,7.0266 C17.4934,7.0266 17.9404,7.4746 17.9414,8.0256 C17.9424,8.5786 17.4954,9.0266 16.9424,9.0266 L10.9974,9.0326 C8.7934,9.0336 7.0004,10.6046 7.0004,12.5336 C7.0004,14.4596 8.7904,16.0306 10.9904,16.0356 L19.0244,16.0466 Z M23.0088,3 C21.9018,3 20.9998,4.002 20.9998,5.233 C20.9998,5.74 21.7138,7.307 22.3798,8.453 C22.5658,8.797 22.8088,9.243 23.0028,9.586 C23.1768,9.28 23.3838,8.902 23.5338,8.621 C24.2598,7.375 25.0178,5.738 25.0178,5.233 C25.0178,4.002 24.1158,3 23.0088,3 Z M23.0008,11.905 L22.9998,11.905 C22.4528,11.905 21.9458,11.643 21.6428,11.204 C21.3968,10.846 20.7598,9.662 20.6338,9.428 C20.2638,8.792 18.9998,6.521 18.9998,5.233 C18.9998,2.899 20.7978,1 23.0088,1 C25.2198,1 27.0178,2.899 27.0178,5.233 C27.0178,6.52 25.6878,8.898 25.2798,9.597 C25.1848,9.775 24.6098,10.846 24.3578,11.207 C24.0568,11.643 23.5478,11.905 23.0008,11.905 Z" id="Combined-Shape" fill="#3E3E3E"></path>
    </g>
</svg>