<?xml version="1.0" encoding="UTF-8"?>
<svg width="24px" height="24px" viewBox="0 0 24 24" version="1.1" xmlns="http://www.w3.org/2000/svg" xmlns:xlink="http://www.w3.org/1999/xlink">
    <!-- Generator: Sketch 49.3 (51167) - http://www.bohemiancoding.com/sketch -->
    <title>ic_search_results</title>
    <desc>Created with Sketch.</desc>
    <defs></defs>
    <g id="ic_search_results" stroke="none" stroke-width="1" fill="none" fill-rule="evenodd">
        <path d="M18.0952892,5.51477684 L15.5126777,4.70676907 L21.9230224,3 L20.2162534,9.4103447 L19.4867946,6.92021869 L13.8900789,12.3123907 L9.25683031,12.3123907 L4.22291927,17.2130849 C3.83084097,17.593643 3.19279279,17.5959203 2.79779877,17.2181713 C2.40280475,16.8404224 2.40044109,16.225693 2.79251939,15.8451349 L8.41763137,10.3706105 L13.0552569,10.3706105 L18.0952892,5.51477684 Z M18,10.4355923 L18,20.5 C18,20.7761424 17.7761424,21 17.5,21 L16.5,21 C16.2238576,21 16,20.7761424 16,20.5 L16,12.3624981 L18,10.4355923 Z M14,13.8123907 L14,20.5 C14,20.7761424 13.7761424,21 13.5,21 L12.5,21 C12.2238576,21 12,20.7761424 12,20.5 L12,13.8123907 L14,13.8123907 Z M10,13.8123907 L10,20.5 C10,20.7761424 9.77614237,21 9.5,21 L8.5,21 C8.22385763,21 8,20.7761424 8,20.5 L8,15.6226804 L9.86509042,13.8123907 L10,13.8123907 Z M6,17.5639158 L6,20.5 C6,20.7761424 5.77614237,21 5.5,21 L4.5,21 C4.22385763,21 4,20.7761424 4,20.5 L4,19.066691 C4.69200294,18.7478367 5.33174921,18.2125318 5.76764866,17.7894401 L6,17.5639158 Z" id="Combined-Shape" fill="#222221"></path>
    </g>
</svg>