<?xml version="1.0" encoding="UTF-8"?>
<svg width="32px" height="32px" viewBox="0 0 32 32" version="1.1" xmlns="http://www.w3.org/2000/svg" xmlns:xlink="http://www.w3.org/1999/xlink">
    <g id="32/Accion/search" stroke="none" stroke-width="1" fill="none" fill-rule="evenodd">
        <path d="M19.2700668,5 C14.9037786,5.00551577 11.3655764,8.54371803 11.3600668,12.9100063 C11.3562137,14.6950104 11.9631538,16.4276126 13.0800668,17.8200063 L12.0800668,18.8200063 C11.0900003,18.3699927 9.92570849,18.5680015 9.14006683,19.3200063 L5.81006683,22.6400063 C5.12384564,23.2935502 4.84577428,24.2676973 5.08359285,25.1850095 C5.32141141,26.1023216 6.03775146,26.8186617 6.95506363,27.0564802 C7.8723758,27.2942988 8.84652284,27.0162274 9.50006683,26.3300063 L12.8500668,22.9900063 C13.5575831,22.2747562 13.7910142,21.216535 13.4500668,20.2700063 L14.5100668,19.2200063 C17.2594056,21.2983028 21.0379492,21.3572345 23.8507629,19.3656875 C26.6635766,17.3741405 27.8631375,13.7905782 26.8161208,10.5069924 C25.769104,7.22340652 22.7165377,4.99569381 19.2700668,5 Z M11.4300668,21.5700063 L8.08006683,24.9200063 C7.84113808,25.0838758 7.51990604,25.0570742 7.31143618,24.8558766 C7.10296633,24.6546789 7.06478055,24.3346005 7.22006683,24.0900063 L10.5700668,20.7400063 C10.6832814,20.6245033 10.8383315,20.5595986 11.0000668,20.5600063 C11.1622654,20.5572319 11.3182131,20.6225123 11.4300668,20.7400063 C11.6522933,20.9720483 11.6522933,21.3379642 11.4300668,21.5700063 Z M19.2700668,18.8300063 C16.0005411,18.8300063 13.3500668,16.179532 13.3500668,12.9100063 C13.3500668,9.64048053 16.0005411,6.99000625 19.2700668,6.99000625 C22.5395926,6.99000625 25.1900668,9.64048053 25.1900668,12.9100063 C25.1900668,16.179532 22.5395926,18.8300063 19.2700668,18.8300063 L19.2700668,18.8300063 Z" id="path-1" fill="#000000"></path>
    </g>
</svg>
