<?xml version="1.0" encoding="UTF-8"?>
<svg width="32px" height="32px" viewBox="0 0 32 32" version="1.1" xmlns="http://www.w3.org/2000/svg" xmlns:xlink="http://www.w3.org/1999/xlink">
    <g id="32/Misc/drive" stroke="none" stroke-width="1" fill="none" fill-rule="evenodd">
        <path d="M17.6368177,17.6265803 C17.4294997,17.6281261 17.2268175,17.5652248 17.0568177,17.4465515 C16.5965578,17.1130519 16.1155906,16.8091073 15.6168177,16.5365515 C14.9301233,16.1422388 14.2108097,15.8076743 13.4668177,15.5365515 C13.1083847,15.4343781 12.8365166,15.1413479 12.7614471,14.7762751 C12.6863776,14.4112023 12.8205654,14.0346752 13.1096017,13.7993635 C13.3986381,13.5640518 13.7945538,13.5090083 14.1368177,13.6565515 C14.9834421,13.9565092 15.8030554,14.3278442 16.5868177,14.7665515 C17.148275,15.0693995 17.6924492,15.4032487 18.2168177,15.7665515 C18.4352653,15.9196256 18.5835034,16.1536299 18.6285731,16.4165363 C18.6736428,16.6794427 18.6118083,16.9494594 18.4568177,17.1665515 C18.2771058,17.4468318 17.9696851,17.6192874 17.6368177,17.6265803 Z M27.5468177,12.4565515 C28.49279,15.5000998 28.1794266,18.7958191 26.6768177,21.6065515 C24.5563809,25.5406066 20.4459359,27.9915074 15.9768177,27.986559 C11.7752914,27.9784329 7.88401237,25.7734809 5.71783044,22.1734052 C3.55164851,18.5733295 3.42609392,14.102524 5.38681772,10.3865515 C8.53531395,4.53271945 15.8084896,2.30305187 21.6968177,5.38655148 C24.5150282,6.8645845 26.6224375,9.41148772 27.5468177,12.4565515 Z M16.0768177,5.98655148 C13.0628497,5.99703612 10.2091057,7.34514627 8.28681772,9.66655148 C11.7799424,9.1495997 15.3468541,9.76277214 18.4668177,11.4165515 C21.5940561,13.0586027 24.1058787,15.668653 25.6268177,18.8565515 C27.0240591,14.2956257 24.9843399,9.3851908 20.7668177,7.15655148 C19.3226821,6.38889748 17.7123054,5.98716171 16.0768177,5.98655148 Z M6.38681772,18.9865515 C6.84601846,20.4523645 7.64033837,21.7910675 8.70681772,22.8965515 L9.97681772,20.6465515 C10.4995501,19.730333 10.5645606,18.6226013 10.1525897,17.651527 C9.74061879,16.6804527 8.89890788,15.9573907 7.87681772,15.6965515 L5.97681772,15.1965515 C5.86919386,16.4744876 6.00838926,17.7611962 6.38681772,18.9865515 Z M10.2568177,24.2665515 L10.2568177,24.2165515 C10.5749549,24.4355006 10.9055086,24.6358361 11.2468177,24.8165515 C11.5488664,24.9794666 11.8592976,25.1263372 12.1768177,25.2565515 L13.5468177,22.6265515 C14.3111881,21.1351478 15.7181287,20.0773834 17.36316,19.7573536 C19.0081913,19.4373238 20.7090718,19.8904824 21.9768177,20.9865515 L23.6668177,22.4065515 C23.9591439,22.0533714 24.2296466,21.6826825 24.4768177,21.2965515 C23.2877256,17.7990868 20.804307,14.889837 17.5368177,13.1665515 C14.2426271,11.4273374 10.4104393,11.0055107 6.81681772,11.9865515 C6.6513999,12.4078564 6.51115293,12.838615 6.39681772,13.2765515 L8.39681772,13.8065515 C10.0138807,14.2326788 11.3422789,15.3839509 11.9939249,16.9240271 C12.6455708,18.4641033 12.5469292,20.2191928 11.7268177,21.6765515 L10.2568177,24.2665515 Z M14.1368177,25.8665515 L14.1368177,25.8165515 C16.9863904,26.3442926 19.925764,25.6312762 22.2168177,23.8565515 L20.6568177,22.4965515 C19.8618089,21.8041585 18.7905836,21.5197296 17.7568177,21.7265515 C16.7110383,21.9228729 15.8143578,22.5907707 15.3268177,23.5365515 L14.1368177,25.8665515 Z" id="path-1" fill="#000000"></path>
    </g>
</svg>
